<svg width="125" height="35" viewBox="0 0 125 35" fill="none" xmlns="http://www.w3.org/2000/svg">
<path fill-rule="evenodd" clip-rule="evenodd" d="M120.356 33.2148H5.44133C3.39115 33.2148 1.83034 31.6853 1.83034 29.9705V4.59469C1.83034 2.90112 3.36801 1.35034 5.44133 1.35034H120.389C122.439 1.35034 124 2.87983 124 4.59469V29.9626C123.972 31.6935 122.428 33.2148 120.356 33.2148ZM120.356 34.2148H5.44133C2.92327 34.2148 0.830338 32.3184 0.830338 29.9705V4.59469C0.830338 2.27685 2.89057 0.350342 5.44133 0.350342H120.389C122.907 0.350342 125 2.24675 125 4.59469V29.9705C124.967 32.3184 122.907 34.2148 120.356 34.2148ZM31.0631 13.3183L19.1611 6.57096C18.4661 6.16554 17.858 6.22346 17.4815 6.62888L27.617 16.7644L31.0631 13.3183ZM68.9115 11.5512C68.4192 12.0435 67.84 12.3041 67.1161 12.3041C66.3921 12.3041 65.813 12.0435 65.3207 11.5512C64.8284 11.0589 64.5967 10.4508 64.5967 9.72679C64.5967 9.00282 64.8284 8.39469 65.3207 7.9024C65.813 7.4101 66.3921 7.14948 67.1161 7.14948C67.84 7.14948 68.4192 7.4101 68.9115 7.9024C69.4038 8.39469 69.6355 9.00282 69.6355 9.69783C69.6355 10.4507 69.3749 11.0589 68.9115 11.5512ZM65.784 11.1458C66.1315 11.5222 66.5948 11.696 67.1161 11.696C67.6373 11.696 68.0717 11.5222 68.4482 11.1458C68.7957 10.7693 68.9984 10.306 68.9984 9.75574C68.9984 9.17657 68.8246 8.71324 68.4482 8.36574C68.1007 7.98928 67.6373 7.81552 67.1161 7.81552C66.5948 7.81552 66.1605 7.98928 65.784 8.36574C65.4365 8.7422 65.2338 9.20553 65.2338 9.75574C65.2338 10.306 65.4365 10.7983 65.784 11.1458ZM47.5691 9.95917C47.5691 10.6542 47.3664 11.1754 46.961 11.5808C46.4976 12.0731 45.8895 12.3048 45.1655 12.3048C44.4705 12.3048 43.8624 12.0731 43.3701 11.5808C42.8778 11.0885 42.6172 10.4804 42.6172 9.75646C42.6172 9.03249 42.8778 8.42437 43.3701 7.93207C43.8624 7.43978 44.4705 7.20811 45.1655 7.20811C45.513 7.20811 45.8605 7.26602 46.1791 7.41082C46.4976 7.55561 46.7583 7.72936 46.932 7.96103L46.4976 8.3954C46.1791 8.01894 45.7158 7.81623 45.1655 7.81623C44.6443 7.81623 44.2099 7.98999 43.8335 8.36645C43.457 8.71395 43.2832 9.20624 43.2832 9.78542C43.2832 10.3646 43.457 10.8279 43.8335 11.2044C44.2099 11.5519 44.6443 11.7546 45.1655 11.7546C45.7158 11.7546 46.1791 11.5808 46.5266 11.2044C46.7583 10.9727 46.9031 10.6252 46.932 10.2198H45.1655V9.64062H47.5401C47.5691 9.69854 47.5691 9.84333 47.5691 9.95917ZM51.334 7.90243H49.1042V9.43723H51.1023V10.0164H49.1042V11.5512H51.334V12.1593H48.496V7.26534H51.334V7.90243ZM53.3318 12.1882H53.9689V7.90235H55.3299V7.29422H51.9707V7.90235H53.3318V12.1882ZM57.7626 12.1882V7.29422H58.3997V12.1882H57.7626ZM60.5425 12.1882H61.1796V7.90235H62.5407V7.29422H59.1815V7.90235H60.5425V12.1882ZM70.5045 7.29429V12.1593H71.1126V9.11868L71.0836 8.16305H71.1126L73.603 12.1593H74.2691V7.26534H73.632V10.1322L73.6609 11.0879H73.632L71.2574 7.29429H70.5045ZM64.3542 19.8661C62.4154 19.8661 60.8292 21.3305 60.8292 23.3808C60.8292 25.4017 62.4154 26.8954 64.3542 26.8954C66.2929 26.8954 67.8791 25.4017 67.8791 23.3808C67.8791 21.3598 66.2929 19.8661 64.3542 19.8661ZM64.3542 25.4895C63.2967 25.4895 62.3861 24.6109 62.3861 23.3808C62.3861 22.1213 63.2967 21.272 64.3542 21.272C65.4117 21.272 66.3223 22.1213 66.3223 23.3808C66.3223 24.6109 65.4117 25.4895 64.3542 25.4895ZM56.658 19.8661C54.7193 19.8661 53.133 21.3305 53.133 23.3808C53.133 25.4017 54.7193 26.8954 56.658 26.8954C58.5967 26.8954 60.183 25.4017 60.183 23.3808C60.183 21.3598 58.5967 19.8661 56.658 19.8661ZM56.658 25.4895C55.6005 25.4895 54.6899 24.6109 54.6899 23.3808C54.6899 22.1213 55.6005 21.272 56.658 21.272C57.7155 21.272 58.6261 22.1213 58.6261 23.3808C58.6555 24.6109 57.7155 25.4895 56.658 25.4895ZM47.5224 20.9498V22.4435H51.0768C50.9593 23.2929 50.6949 23.8787 50.2543 24.318C49.7256 24.8452 48.9324 25.4017 47.4931 25.4017C45.29 25.4017 43.5862 23.6443 43.5862 21.4477C43.5862 19.251 45.29 17.4937 47.4931 17.4937C48.6681 17.4937 49.5493 17.9623 50.1956 18.5481L51.253 17.4937C50.3718 16.6444 49.1674 16 47.5224 16C44.5262 16 42 18.431 42 21.4477C42 24.4351 44.5262 26.8954 47.5224 26.8954C49.1381 26.8954 50.3718 26.3682 51.3412 25.3724C52.3399 24.3766 52.6337 23 52.6337 21.887C52.6337 21.5356 52.6043 21.2134 52.5455 20.9498H47.5224ZM84.9165 22.0921C84.6227 21.3013 83.7415 19.8661 81.9203 19.8661C80.099 19.8661 78.6009 21.272 78.6009 23.3808C78.6009 25.3431 80.099 26.8954 82.0965 26.8954C83.7121 26.8954 84.6521 25.8996 85.034 25.3431L83.8296 24.5523C83.4184 25.1381 82.8896 25.5188 82.0965 25.5188C81.3034 25.5188 80.7453 25.1674 80.3928 24.4644L85.0927 22.5314L84.9165 22.0921ZM80.1284 23.2636C80.099 21.9163 81.1859 21.2134 81.979 21.2134C82.5959 21.2134 83.1246 21.5063 83.2715 21.9456L80.1284 23.2636ZM76.3097 26.6611H77.8666V16.3808H76.3097V26.6611ZM73.7835 20.6569H73.7247C73.3722 20.2469 72.726 19.8661 71.8741 19.8661C70.1116 19.8661 68.496 21.4184 68.496 23.3808C68.496 25.3431 70.1116 26.8661 71.8741 26.8661C72.726 26.8661 73.3722 26.4854 73.7247 26.0753H73.7835V26.5732C73.7835 27.9205 73.0785 28.6234 71.9035 28.6234C70.9635 28.6234 70.376 27.9498 70.141 27.364L68.7898 27.9205C69.1716 28.8577 70.1997 30 71.9035 30C73.7247 30 75.2522 28.9456 75.2522 26.3389V20.0418H73.7835V20.6569ZM72.021 25.4895C70.9635 25.4895 70.0529 24.6109 70.0529 23.3808C70.0529 22.1506 70.9341 21.2427 72.021 21.2427C73.0785 21.2427 73.901 22.1506 73.901 23.3808C73.901 24.6109 73.0785 25.4895 72.021 25.4895ZM92.1721 16.3808H88.4708V26.6611H89.9983V22.7657H92.1427C93.8464 22.7657 95.5208 21.5356 95.5208 19.5732C95.5208 17.6109 93.8758 16.3808 92.1721 16.3808ZM92.2014 21.3305H89.9983V17.8159H92.2014C93.347 17.8159 93.9933 18.7531 93.9933 19.5732C93.9933 20.364 93.347 21.3305 92.2014 21.3305ZM101.719 19.8661C100.603 19.8661 99.457 20.364 98.9576 21.4477L100.338 22.0042C100.632 21.4477 101.161 21.2427 101.748 21.2427C102.541 21.2427 103.364 21.7113 103.364 22.5607V22.6778C103.099 22.5314 102.483 22.2678 101.748 22.2678C100.279 22.2678 98.7814 23.0879 98.7814 24.5816C98.7814 25.9582 99.9857 26.8368 101.337 26.8368C102.365 26.8368 102.953 26.3682 103.305 25.841H103.364V26.6318H104.862V22.6778C104.862 20.8619 103.481 19.8661 101.719 19.8661ZM101.543 25.4895C101.043 25.4895 100.338 25.2259 100.338 24.6109C100.338 23.8201 101.219 23.4979 101.983 23.4979C102.659 23.4979 102.982 23.6444 103.393 23.8494C103.246 24.8159 102.424 25.4895 101.543 25.4895ZM110.267 20.0711L108.504 24.523H108.446L106.624 20.0711H104.95L107.711 26.3096L106.154 29.7657H107.77L112 20.0711H110.267ZM96.402 26.6611H97.9295V16.3808H96.402V26.6611ZM15.9761 8.91614C15.9761 8.39489 16.1209 8.01843 16.3526 7.7578L16.4105 7.69989L26.4881 17.7775V17.8933V18.067L16.4105 28.1446L16.3526 28.0867C16.1209 27.8261 15.9761 27.4207 15.9761 26.9284V8.91614ZM32.1049 21.3682L28.7458 18.009V17.8932V17.7774L32.1049 14.4182L32.1918 14.4471L36.1881 16.7059C37.3175 17.343 37.3175 18.4145 36.1881 19.0515L32.1918 21.3103L32.1049 21.3682ZM27.617 19.0221L31.0631 22.4682L19.1611 29.2155C18.4661 29.592 17.858 29.563 17.4815 29.1576L27.617 19.0221Z" fill="#85878D"/>
</svg>
