
<svg width="297" height="509" viewBox="0 0 297 509" fill="none" xmlns="http://www.w3.org/2000/svg">
<g clip-path="url(#clip0)">
<line x1="-1127.35" y1="972.235" x2="503.234" y2="-658.353" stroke="#4F4F4F" stroke-opacity="0.4"/>
<line x1="-1120.28" y1="979.306" x2="510.306" y2="-651.283" stroke="#4F4F4F" stroke-opacity="0.4"/>
<line x1="-1113.21" y1="986.377" x2="517.377" y2="-644.211" stroke="#4F4F4F" stroke-opacity="0.4"/>
<line x1="-1106.14" y1="993.448" x2="524.447" y2="-637.141" stroke="#4F4F4F" stroke-opacity="0.4"/>
<line x1="-1099.07" y1="1000.52" x2="530.811" y2="-629.362" stroke="#4F4F4F" stroke-opacity="0.4"/>
<line x1="-1092" y1="1007.59" x2="538.59" y2="-622.998" stroke="#4F4F4F" stroke-opacity="0.4"/>
<line x1="-1084.93" y1="1014.66" x2="544.954" y2="-615.22" stroke="#4F4F4F" stroke-opacity="0.4"/>
<line x1="-1077.86" y1="1021.73" x2="552.732" y2="-608.856" stroke="#4F4F4F" stroke-opacity="0.4"/>
<line x1="-1070.79" y1="1028.8" x2="559.096" y2="-601.078" stroke="#4F4F4F" stroke-opacity="0.4"/>
<line x1="-1063.71" y1="1035.87" x2="566.167" y2="-594.007" stroke="#4F4F4F" stroke-opacity="0.4"/>
<line x1="-1056.64" y1="1042.95" x2="573.945" y2="-587.643" stroke="#4F4F4F" stroke-opacity="0.4"/>
<line x1="-1049.57" y1="1050.02" x2="580.308" y2="-579.865" stroke="#4F4F4F" stroke-opacity="0.4"/>
<line x1="-1042.5" y1="1057.09" x2="588.088" y2="-573.501" stroke="#4F4F4F" stroke-opacity="0.4"/>
<line x1="-1035.43" y1="1064.16" x2="595.158" y2="-566.43" stroke="#4F4F4F" stroke-opacity="0.4"/>
<line x1="-1028.36" y1="1071.23" x2="602.229" y2="-559.359" stroke="#4F4F4F" stroke-opacity="0.4"/>
<line x1="-1021.29" y1="1078.3" x2="609.301" y2="-552.288" stroke="#4F4F4F" stroke-opacity="0.4"/>
<line x1="-1014.22" y1="1085.37" x2="616.371" y2="-545.217" stroke="#4F4F4F" stroke-opacity="0.4"/>
<line x1="-1007.14" y1="1092.44" x2="622.736" y2="-537.438" stroke="#4F4F4F" stroke-opacity="0.4"/>
<line x1="-1000.07" y1="1099.51" x2="630.514" y2="-531.075" stroke="#4F4F4F" stroke-opacity="0.4"/>
<line x1="-993.003" y1="1106.59" x2="637.585" y2="-524.003" stroke="#4F4F4F" stroke-opacity="0.4"/>
<line x1="-985.932" y1="1113.66" x2="644.656" y2="-516.932" stroke="#4F4F4F" stroke-opacity="0.4"/>
<line x1="-978.861" y1="1120.73" x2="651.726" y2="-509.861" stroke="#4F4F4F" stroke-opacity="0.4"/>
<line x1="-971.79" y1="1127.8" x2="658.091" y2="-502.083" stroke="#4F4F4F" stroke-opacity="0.4"/>
<line x1="-964.719" y1="1134.87" x2="665.869" y2="-495.719" stroke="#4F4F4F" stroke-opacity="0.4"/>
<line x1="-957.648" y1="1141.94" x2="672.232" y2="-487.941" stroke="#4F4F4F" stroke-opacity="0.4"/>
<line x1="-950.576" y1="1149.01" x2="679.305" y2="-480.87" stroke="#4F4F4F" stroke-opacity="0.4"/>
<line x1="-943.506" y1="1156.08" x2="687.082" y2="-474.506" stroke="#4F4F4F" stroke-opacity="0.4"/>
<line x1="-936.435" y1="1163.15" x2="694.153" y2="-467.435" stroke="#4F4F4F" stroke-opacity="0.4"/>
<line x1="-929.363" y1="1170.23" x2="700.517" y2="-459.657" stroke="#4F4F4F" stroke-opacity="0.4"/>
<line x1="-922.293" y1="1177.3" x2="708.295" y2="-453.293" stroke="#4F4F4F" stroke-opacity="0.4"/>
<line x1="-915.221" y1="1184.37" x2="714.66" y2="-445.515" stroke="#4F4F4F" stroke-opacity="0.4"/>
<line x1="-908.15" y1="1191.44" x2="722.437" y2="-439.15" stroke="#4F4F4F" stroke-opacity="0.4"/>
<line x1="-901.079" y1="1198.51" x2="728.802" y2="-431.372" stroke="#4F4F4F" stroke-opacity="0.4"/>
<line x1="-894.008" y1="1205.58" x2="735.873" y2="-424.301" stroke="#4F4F4F" stroke-opacity="0.4"/>
<line x1="-886.938" y1="1212.65" x2="743.65" y2="-417.937" stroke="#4F4F4F" stroke-opacity="0.4"/>
<line x1="-879.866" y1="1219.72" x2="750.014" y2="-410.159" stroke="#4F4F4F" stroke-opacity="0.4"/>
<line x1="-872.795" y1="1226.79" x2="757.793" y2="-403.795" stroke="#4F4F4F" stroke-opacity="0.4"/>
<line x1="-865.724" y1="1233.86" x2="764.864" y2="-396.724" stroke="#4F4F4F" stroke-opacity="0.4"/>
<line x1="-858.652" y1="1240.94" x2="771.935" y2="-389.653" stroke="#4F4F4F" stroke-opacity="0.4"/>
<line x1="-851.582" y1="1248.01" x2="779.006" y2="-382.582" stroke="#4F4F4F" stroke-opacity="0.4"/>
<line x1="-844.511" y1="1255.08" x2="786.077" y2="-375.511" stroke="#4F4F4F" stroke-opacity="0.4"/>
<line x1="-837.439" y1="1262.15" x2="793.148" y2="-368.44" stroke="#4F4F4F" stroke-opacity="0.4"/>
<line x1="-787.941" y1="1311.65" x2="841.939" y2="-318.235" stroke="#4F4F4F" stroke-opacity="0.4"/>
<line x1="-830.369" y1="1269.22" x2="800.219" y2="-361.369" stroke="#4F4F4F" stroke-opacity="0.4"/>
<line x1="-823.297" y1="1276.29" x2="806.584" y2="-353.591" stroke="#4F4F4F" stroke-opacity="0.4"/>
<line x1="-816.227" y1="1283.36" x2="813.654" y2="-346.519" stroke="#4F4F4F" stroke-opacity="0.4"/>
<line x1="-809.155" y1="1290.43" x2="820.725" y2="-339.449" stroke="#4F4F4F" stroke-opacity="0.4"/>
<line x1="-802.084" y1="1297.5" x2="827.797" y2="-332.377" stroke="#4F4F4F" stroke-opacity="0.4"/>
<line x1="-795.014" y1="1304.58" x2="834.867" y2="-325.307" stroke="#4F4F4F" stroke-opacity="0.4"/>
<line x1="-745.516" y1="1354.07" x2="885.072" y2="-276.516" stroke="#4F4F4F" stroke-opacity="0.4"/>
<line x1="-731.373" y1="1368.21" x2="898.508" y2="-261.667" stroke="#4F4F4F" stroke-opacity="0.4"/>
<line x1="-724.303" y1="1375.29" x2="905.578" y2="-254.596" stroke="#4F4F4F" stroke-opacity="0.4"/>
<line x1="-717.231" y1="1382.36" x2="913.356" y2="-248.232" stroke="#4F4F4F" stroke-opacity="0.4"/>
<line x1="-710.16" y1="1389.43" x2="919.721" y2="-240.454" stroke="#4F4F4F" stroke-opacity="0.4"/>
<line x1="-703.09" y1="1396.5" x2="927.498" y2="-234.09" stroke="#4F4F4F" stroke-opacity="0.4"/>
<line x1="-738.445" y1="1361.14" x2="891.435" y2="-268.738" stroke="#4F4F4F" stroke-opacity="0.4"/>
<line x1="-780.871" y1="1318.72" x2="849.717" y2="-311.872" stroke="#4F4F4F" stroke-opacity="0.4"/>
<line x1="-773.8" y1="1325.79" x2="856.081" y2="-304.093" stroke="#4F4F4F" stroke-opacity="0.4"/>
<line x1="-766.729" y1="1332.86" x2="863.859" y2="-297.729" stroke="#4F4F4F" stroke-opacity="0.4"/>
<line x1="-759.658" y1="1339.93" x2="870.93" y2="-290.658" stroke="#4F4F4F" stroke-opacity="0.4"/>
<line x1="-752.587" y1="1347" x2="878.001" y2="-283.587" stroke="#4F4F4F" stroke-opacity="0.4"/>
<line x1="-696.018" y1="1403.57" x2="933.863" y2="-226.311" stroke="#4F4F4F" stroke-opacity="0.4"/>
<line x1="-688.947" y1="1410.64" x2="941.641" y2="-219.948" stroke="#4F4F4F" stroke-opacity="0.4"/>
<line x1="-681.876" y1="1417.71" x2="948.712" y2="-212.876" stroke="#4F4F4F" stroke-opacity="0.4"/>
<line x1="-674.805" y1="1424.78" x2="955.076" y2="-205.099" stroke="#4F4F4F" stroke-opacity="0.4"/>
<line x1="-667.734" y1="1431.85" x2="962.146" y2="-198.027" stroke="#4F4F4F" stroke-opacity="0.4"/>
<line x1="-660.662" y1="1438.93" x2="969.926" y2="-191.663" stroke="#4F4F4F" stroke-opacity="0.4"/>
<line x1="-653.592" y1="1446" x2="976.289" y2="-183.885" stroke="#4F4F4F" stroke-opacity="0.4"/>
<line x1="-646.521" y1="1453.07" x2="984.067" y2="-177.521" stroke="#4F4F4F" stroke-opacity="0.4"/>
<line x1="-639.449" y1="1460.14" x2="990.431" y2="-169.743" stroke="#4F4F4F" stroke-opacity="0.4"/>
<line x1="-632.379" y1="1467.21" x2="998.209" y2="-163.379" stroke="#4F4F4F" stroke-opacity="0.4"/>
<line x1="-625.308" y1="1474.28" x2="1005.28" y2="-156.308" stroke="#4F4F4F" stroke-opacity="0.4"/>
<line x1="-618.236" y1="1481.35" x2="1011.64" y2="-148.53" stroke="#4F4F4F" stroke-opacity="0.4"/>
<line x1="-611.166" y1="1488.42" x2="1019.42" y2="-142.166" stroke="#4F4F4F" stroke-opacity="0.4"/>
<line x1="-604.094" y1="1495.49" x2="1025.79" y2="-134.388" stroke="#4F4F4F" stroke-opacity="0.4"/>
<line x1="-597.023" y1="1502.56" x2="1033.56" y2="-128.024" stroke="#4F4F4F" stroke-opacity="0.4"/>
<line x1="-590.659" y1="1508.93" x2="1039.22" y2="-120.953" stroke="#4F4F4F" stroke-opacity="0.4"/>
<line x1="-583.588" y1="1516" x2="1046.29" y2="-113.882" stroke="#4F4F4F" stroke-opacity="0.4"/>
<line x1="-576.518" y1="1523.07" x2="1053.36" y2="-106.81" stroke="#4F4F4F" stroke-opacity="0.4"/>
<line x1="-569.446" y1="1530.14" x2="1060.43" y2="-99.7396" stroke="#4F4F4F" stroke-opacity="0.4"/>
<line x1="-562.375" y1="1537.21" x2="1068.21" y2="-93.3755" stroke="#4F4F4F" stroke-opacity="0.4"/>
<line x1="-555.304" y1="1544.28" x2="1075.28" y2="-86.3042" stroke="#4F4F4F" stroke-opacity="0.4"/>
<line x1="-548.232" y1="1551.36" x2="1082.36" y2="-79.2334" stroke="#4F4F4F" stroke-opacity="0.4"/>
<line x1="-541.162" y1="1558.43" x2="1089.43" y2="-72.1621" stroke="#4F4F4F" stroke-opacity="0.4"/>
<line x1="-534.091" y1="1565.5" x2="1096.5" y2="-65.0913" stroke="#4F4F4F" stroke-opacity="0.4"/>
<line x1="-527.02" y1="1572.57" x2="1103.57" y2="-58.02" stroke="#4F4F4F" stroke-opacity="0.4"/>
<line x1="-519.949" y1="1579.64" x2="1110.64" y2="-50.9492" stroke="#4F4F4F" stroke-opacity="0.4"/>
<line x1="-512.877" y1="1586.71" x2="1117.71" y2="-43.8779" stroke="#4F4F4F" stroke-opacity="0.4"/>
<line x1="-505.807" y1="1593.78" x2="1124.78" y2="-36.8071" stroke="#4F4F4F" stroke-opacity="0.4"/>
<line x1="-498.735" y1="1600.85" x2="1131.85" y2="-29.7358" stroke="#4F4F4F" stroke-opacity="0.4"/>
<line x1="-491.664" y1="1607.92" x2="1138.22" y2="-21.9579" stroke="#4F4F4F" stroke-opacity="0.4"/>
<line x1="-484.594" y1="1615" x2="1145.99" y2="-15.5937" stroke="#4F4F4F" stroke-opacity="0.4"/>
<line x1="-477.522" y1="1622.07" x2="1152.36" y2="-7.81532" stroke="#4F4F4F" stroke-opacity="0.4"/>
<line x1="-470.451" y1="1629.14" x2="1160.14" y2="-1.45163" stroke="#4F4F4F" stroke-opacity="0.4"/>
<line x1="-463.38" y1="1636.21" x2="1166.5" y2="6.32677" stroke="#4F4F4F" stroke-opacity="0.4"/>
<line x1="-456.309" y1="1643.28" x2="1174.28" y2="12.6905" stroke="#4F4F4F" stroke-opacity="0.4"/>
<line x1="-449.238" y1="1650.35" x2="1181.35" y2="19.7618" stroke="#4F4F4F" stroke-opacity="0.4"/>
<line x1="-442.167" y1="1657.42" x2="1188.42" y2="26.8326" stroke="#4F4F4F" stroke-opacity="0.4"/>
<line x1="-435.096" y1="1664.49" x2="1194.79" y2="34.611" stroke="#4F4F4F" stroke-opacity="0.4"/>
<line x1="-428.025" y1="1671.56" x2="1202.56" y2="40.9746" stroke="#4F4F4F" stroke-opacity="0.4"/>
<line x1="-420.953" y1="1678.63" x2="1208.93" y2="48.753" stroke="#4F4F4F" stroke-opacity="0.4"/>
<line x1="-413.883" y1="1685.71" x2="1216" y2="55.8238" stroke="#4F4F4F" stroke-opacity="0.4"/>
<line x1="-406.812" y1="1692.78" x2="1223.07" y2="62.8951" stroke="#4F4F4F" stroke-opacity="0.4"/>
<line x1="-399.74" y1="1699.85" x2="1230.14" y2="69.9664" stroke="#4F4F4F" stroke-opacity="0.4"/>
<line x1="-392.67" y1="1706.92" x2="1237.92" y2="76.3301" stroke="#4F4F4F" stroke-opacity="0.4"/>
<line x1="-385.598" y1="1713.99" x2="1244.99" y2="83.4014" stroke="#4F4F4F" stroke-opacity="0.4"/>
<line x1="-378.527" y1="1721.06" x2="1251.35" y2="91.1793" stroke="#4F4F4F" stroke-opacity="0.4"/>
<line x1="-371.456" y1="1728.13" x2="1259.13" y2="97.5435" stroke="#4F4F4F" stroke-opacity="0.4"/>
<line x1="-364.385" y1="1735.2" x2="1265.5" y2="105.321" stroke="#4F4F4F" stroke-opacity="0.4"/>
<line x1="-357.314" y1="1742.27" x2="1273.27" y2="111.686" stroke="#4F4F4F" stroke-opacity="0.4"/>
<line x1="-350.242" y1="1749.35" x2="1279.64" y2="119.463" stroke="#4F4F4F" stroke-opacity="0.4"/>
<line x1="-343.172" y1="1756.42" x2="1287.42" y2="125.828" stroke="#4F4F4F" stroke-opacity="0.4"/>
<line x1="-336.101" y1="1763.49" x2="1293.78" y2="133.606" stroke="#4F4F4F" stroke-opacity="0.4"/>
<line x1="-329.029" y1="1770.56" x2="1300.85" y2="140.677" stroke="#4F4F4F" stroke-opacity="0.4"/>
<line x1="-321.959" y1="1777.63" x2="1308.63" y2="147.041" stroke="#4F4F4F" stroke-opacity="0.4"/>
<line x1="-314.888" y1="1784.7" x2="1314.99" y2="154.819" stroke="#4F4F4F" stroke-opacity="0.4"/>
<line x1="-307.816" y1="1791.77" x2="1322.77" y2="161.183" stroke="#4F4F4F" stroke-opacity="0.4"/>
<line x1="-300.746" y1="1798.84" x2="1329.14" y2="168.961" stroke="#4F4F4F" stroke-opacity="0.4"/>
<line x1="-293.674" y1="1805.91" x2="1336.91" y2="175.325" stroke="#4F4F4F" stroke-opacity="0.4"/>
<line x1="-286.604" y1="1812.98" x2="1343.28" y2="183.103" stroke="#4F4F4F" stroke-opacity="0.4"/>
<line x1="-279.532" y1="1820.06" x2="1351.06" y2="189.467" stroke="#4F4F4F" stroke-opacity="0.4"/>
<line x1="-272.461" y1="1827.13" x2="1357.42" y2="197.245" stroke="#4F4F4F" stroke-opacity="0.4"/>
<line x1="-265.39" y1="1834.2" x2="1365.2" y2="203.609" stroke="#4F4F4F" stroke-opacity="0.4"/>
<line x1="-258.319" y1="1841.27" x2="1371.56" y2="211.387" stroke="#4F4F4F" stroke-opacity="0.4"/>
<line x1="-251.248" y1="1848.34" x2="1379.34" y2="217.751" stroke="#4F4F4F" stroke-opacity="0.4"/>
<line x1="-244.177" y1="1855.41" x2="1386.41" y2="224.823" stroke="#4F4F4F" stroke-opacity="0.4"/>
<line x1="-237.106" y1="1862.48" x2="1393.48" y2="231.894" stroke="#4F4F4F" stroke-opacity="0.4"/>
<line x1="-230.035" y1="1869.55" x2="1399.85" y2="239.672" stroke="#4F4F4F" stroke-opacity="0.4"/>
<line x1="-222.964" y1="1876.62" x2="1407.62" y2="246.036" stroke="#4F4F4F" stroke-opacity="0.4"/>
<line x1="-215.893" y1="1883.7" x2="1414.7" y2="253.107" stroke="#4F4F4F" stroke-opacity="0.4"/>
<line x1="-208.822" y1="1890.77" x2="1421.77" y2="260.178" stroke="#4F4F4F" stroke-opacity="0.4"/>
<line x1="-201.751" y1="1897.84" x2="1428.84" y2="267.249" stroke="#4F4F4F" stroke-opacity="0.4"/>
<line x1="-194.679" y1="1904.91" x2="1435.91" y2="274.32" stroke="#4F4F4F" stroke-opacity="0.4"/>
<line x1="-187.608" y1="1911.98" x2="1442.98" y2="281.391" stroke="#4F4F4F" stroke-opacity="0.4"/>
<line x1="-180.537" y1="1919.05" x2="1450.05" y2="288.462" stroke="#4F4F4F" stroke-opacity="0.4"/>
<line x1="-173.466" y1="1926.12" x2="1457.12" y2="295.533" stroke="#4F4F4F" stroke-opacity="0.4"/>
<line x1="-166.395" y1="1933.19" x2="1463.49" y2="303.312" stroke="#4F4F4F" stroke-opacity="0.4"/>
<line x1="-159.324" y1="1940.26" x2="1470.56" y2="310.382" stroke="#4F4F4F" stroke-opacity="0.4"/>
<line x1="-152.253" y1="1947.34" x2="1478.33" y2="316.747" stroke="#4F4F4F" stroke-opacity="0.4"/>
<line x1="-145.182" y1="1954.41" x2="1484.7" y2="324.525" stroke="#4F4F4F" stroke-opacity="0.4"/>
<line x1="-138.111" y1="1961.48" x2="1492.48" y2="330.889" stroke="#4F4F4F" stroke-opacity="0.4"/>
<line x1="-131.04" y1="1968.55" x2="1498.84" y2="338.667" stroke="#4F4F4F" stroke-opacity="0.4"/>
<line x1="-123.969" y1="1975.62" x2="1506.62" y2="345.031" stroke="#4F4F4F" stroke-opacity="0.4"/>
<line x1="-116.897" y1="1982.69" x2="1513.69" y2="352.102" stroke="#4F4F4F" stroke-opacity="0.4"/>
<line x1="-109.827" y1="1989.76" x2="1520.76" y2="359.173" stroke="#4F4F4F" stroke-opacity="0.4"/>
<line x1="-102.755" y1="1996.83" x2="1527.83" y2="366.244" stroke="#4F4F4F" stroke-opacity="0.4"/>
<line x1="-95.6846" y1="2003.9" x2="1534.2" y2="374.022" stroke="#4F4F4F" stroke-opacity="0.4"/>
<line x1="-88.6133" y1="2010.98" x2="1541.97" y2="380.386" stroke="#4F4F4F" stroke-opacity="0.4"/>
<line x1="-81.5425" y1="2018.05" x2="1548.34" y2="388.164" stroke="#4F4F4F" stroke-opacity="0.4"/>
<line x1="-74.4712" y1="2025.12" x2="1556.12" y2="394.528" stroke="#4F4F4F" stroke-opacity="0.4"/>
<line x1="-67.4004" y1="2032.19" x2="1562.48" y2="402.306" stroke="#4F4F4F" stroke-opacity="0.4"/>
</g>
<defs>
<clipPath id="clip0">
<rect width="297" height="509" fill="white"/>
</clipPath>
</defs>
</svg>
