<svg width="320" height="593" viewBox="0 0 320 593" fill="none" xmlns="http://www.w3.org/2000/svg"><g style="mix-blend-mode:difference" opacity="0.3"><line x1="-1040.25" y1="1101.96" x2="590.014" y2="-528.303" stroke="#4F4F4F" stroke-opacity="0.5"/><line x1="-1040.25" y1="1091.91" x2="590.014" y2="-538.357" stroke="#4F4F4F" stroke-opacity="0.5"/><line x1="-1040.25" y1="1081.91" x2="590.014" y2="-548.356" stroke="#4F4F4F" stroke-opacity="0.5"/><line x1="-1040.25" y1="1071.91" x2="590.014" y2="-558.356" stroke="#4F4F4F" stroke-opacity="0.5"/><line x1="-1040.25" y1="1061.91" x2="590.014" y2="-568.354" stroke="#4F4F4F" stroke-opacity="0.5"/><line x1="-1048.07" y1="1058.91" x2="582.198" y2="-571.354" stroke="#4F4F4F" stroke-opacity="0.5"/><line x1="-1031.28" y1="1101.96" x2="598.98" y2="-528.303" stroke="#4F4F4F" stroke-opacity="0.5"/><line x1="-1020.08" y1="1101.96" x2="610.186" y2="-528.303" stroke="#4F4F4F" stroke-opacity="0.5"/><line x1="-1011.11" y1="1101.96" x2="619.153" y2="-528.303" stroke="#4F4F4F" stroke-opacity="0.5"/><line x1="-1020.08" y1="1120.28" x2="610.186" y2="-509.988" stroke="#4F4F4F" stroke-opacity="0.5"/><line x1="-1011.11" y1="1120.28" x2="619.153" y2="-509.988" stroke="#4F4F4F" stroke-opacity="0.5"/><line x1="-1020.08" y1="1138.59" x2="610.186" y2="-491.674" stroke="#4F4F4F" stroke-opacity="0.5"/><line x1="-1011.11" y1="1138.59" x2="619.153" y2="-491.674" stroke="#4F4F4F" stroke-opacity="0.5"/><line x1="-963.797" y1="1101.96" x2="666.467" y2="-528.303" stroke="#4F4F4F" stroke-opacity="0.5"/><line x1="-954.83" y1="1101.96" x2="675.433" y2="-528.303" stroke="#4F4F4F" stroke-opacity="0.5"/><line x1="-943.625" y1="1101.96" x2="686.639" y2="-528.303" stroke="#4F4F4F" stroke-opacity="0.5"/><line x1="-934.658" y1="1101.96" x2="695.605" y2="-528.303" stroke="#4F4F4F" stroke-opacity="0.5"/><line x1="-943.625" y1="1120.28" x2="686.639" y2="-509.988" stroke="#4F4F4F" stroke-opacity="0.5"/><line x1="-934.658" y1="1120.28" x2="695.605" y2="-509.988" stroke="#4F4F4F" stroke-opacity="0.5"/><line x1="-943.625" y1="1138.59" x2="686.639" y2="-491.674" stroke="#4F4F4F" stroke-opacity="0.5"/><line x1="-934.658" y1="1138.59" x2="695.605" y2="-491.674" stroke="#4F4F4F" stroke-opacity="0.5"/><line x1="-887.779" y1="1101.96" x2="742.485" y2="-528.303" stroke="#4F4F4F" stroke-opacity="0.5"/><line x1="-878.812" y1="1101.96" x2="751.451" y2="-528.303" stroke="#4F4F4F" stroke-opacity="0.5"/><line x1="-867.606" y1="1101.96" x2="762.657" y2="-528.303" stroke="#4F4F4F" stroke-opacity="0.5"/><line x1="-858.64" y1="1101.96" x2="771.624" y2="-528.303" stroke="#4F4F4F" stroke-opacity="0.5"/><line x1="-867.606" y1="1120.28" x2="762.657" y2="-509.988" stroke="#4F4F4F" stroke-opacity="0.5"/><line x1="-858.64" y1="1120.28" x2="771.624" y2="-509.988" stroke="#4F4F4F" stroke-opacity="0.5"/><line x1="-867.606" y1="1138.59" x2="762.657" y2="-491.674" stroke="#4F4F4F" stroke-opacity="0.5"/><line x1="-858.64" y1="1138.59" x2="771.624" y2="-491.674" stroke="#4F4F4F" stroke-opacity="0.5"/><line x1="-810.658" y1="1101.96" x2="819.606" y2="-528.303" stroke="#4F4F4F" stroke-opacity="0.5"/><line x1="-801.691" y1="1101.96" x2="828.573" y2="-528.303" stroke="#4F4F4F" stroke-opacity="0.5"/><line x1="-790.485" y1="1101.96" x2="839.778" y2="-528.303" stroke="#4F4F4F" stroke-opacity="0.5"/><line x1="-781.519" y1="1101.96" x2="848.745" y2="-528.303" stroke="#4F4F4F" stroke-opacity="0.5"/><line x1="-790.485" y1="1120.28" x2="839.778" y2="-509.988" stroke="#4F4F4F" stroke-opacity="0.5"/><line x1="-781.519" y1="1120.28" x2="848.745" y2="-509.988" stroke="#4F4F4F" stroke-opacity="0.5"/><line x1="-790.485" y1="1138.59" x2="839.778" y2="-491.674" stroke="#4F4F4F" stroke-opacity="0.5"/><line x1="-781.519" y1="1138.59" x2="848.745" y2="-491.674" stroke="#4F4F4F" stroke-opacity="0.5"/><line x1="-733.748" y1="1101.96" x2="896.515" y2="-528.303" stroke="#4F4F4F" stroke-opacity="0.5"/><line x1="-724.782" y1="1101.96" x2="905.482" y2="-528.303" stroke="#4F4F4F" stroke-opacity="0.5"/><line x1="-713.576" y1="1101.96" x2="916.688" y2="-528.303" stroke="#4F4F4F" stroke-opacity="0.5"/><line x1="-704.609" y1="1101.96" x2="925.654" y2="-528.303" stroke="#4F4F4F" stroke-opacity="0.5"/><line x1="-713.576" y1="1120.28" x2="916.688" y2="-509.988" stroke="#4F4F4F" stroke-opacity="0.5"/><line x1="-704.609" y1="1120.28" x2="925.654" y2="-509.988" stroke="#4F4F4F" stroke-opacity="0.5"/><line x1="-713.576" y1="1138.59" x2="916.688" y2="-491.674" stroke="#4F4F4F" stroke-opacity="0.5"/><line x1="-704.609" y1="1138.59" x2="925.654" y2="-491.674" stroke="#4F4F4F" stroke-opacity="0.5"/><line x1="-657.295" y1="1101.96" x2="972.968" y2="-528.303" stroke="#4F4F4F" stroke-opacity="0.5"/><line x1="-648.329" y1="1101.96" x2="981.934" y2="-528.303" stroke="#4F4F4F" stroke-opacity="0.5"/><line x1="-637.124" y1="1101.96" x2="993.14" y2="-528.303" stroke="#4F4F4F" stroke-opacity="0.5"/><line x1="-628.157" y1="1101.96" x2="1002.11" y2="-528.303" stroke="#4F4F4F" stroke-opacity="0.5"/><line x1="-637.124" y1="1120.28" x2="993.14" y2="-509.988" stroke="#4F4F4F" stroke-opacity="0.5"/><line x1="-628.157" y1="1120.28" x2="1002.11" y2="-509.988" stroke="#4F4F4F" stroke-opacity="0.5"/><line x1="-637.124" y1="1138.59" x2="993.14" y2="-491.674" stroke="#4F4F4F" stroke-opacity="0.5"/><line x1="-628.157" y1="1138.59" x2="1002.11" y2="-491.674" stroke="#4F4F4F" stroke-opacity="0.5"/><line x1="-581.277" y1="1101.96" x2="1048.99" y2="-528.303" stroke="#4F4F4F" stroke-opacity="0.5"/><line x1="-572.311" y1="1101.96" x2="1057.95" y2="-528.303" stroke="#4F4F4F" stroke-opacity="0.5"/><line x1="-561.105" y1="1101.96" x2="1069.16" y2="-528.303" stroke="#4F4F4F" stroke-opacity="0.5"/><line x1="-552.139" y1="1101.96" x2="1078.12" y2="-528.303" stroke="#4F4F4F" stroke-opacity="0.5"/><line x1="-561.105" y1="1120.28" x2="1069.16" y2="-509.988" stroke="#4F4F4F" stroke-opacity="0.5"/><line x1="-552.139" y1="1120.28" x2="1078.12" y2="-509.988" stroke="#4F4F4F" stroke-opacity="0.5"/><line x1="-561.105" y1="1138.59" x2="1069.16" y2="-491.674" stroke="#4F4F4F" stroke-opacity="0.5"/><line x1="-552.139" y1="1138.59" x2="1078.12" y2="-491.674" stroke="#4F4F4F" stroke-opacity="0.5"/><line x1="-504.156" y1="1101.96" x2="1126.11" y2="-528.303" stroke="#4F4F4F" stroke-opacity="0.5"/><line x1="-495.189" y1="1101.96" x2="1135.07" y2="-528.303" stroke="#4F4F4F" stroke-opacity="0.5"/><line x1="-483.984" y1="1101.96" x2="1146.28" y2="-528.303" stroke="#4F4F4F" stroke-opacity="0.5"/><line x1="-475.018" y1="1101.96" x2="1155.25" y2="-528.303" stroke="#4F4F4F" stroke-opacity="0.5"/><line x1="-483.984" y1="1120.28" x2="1146.28" y2="-509.988" stroke="#4F4F4F" stroke-opacity="0.5"/><line x1="-475.018" y1="1120.28" x2="1155.25" y2="-509.988" stroke="#4F4F4F" stroke-opacity="0.5"/><line x1="-483.984" y1="1138.59" x2="1146.28" y2="-491.674" stroke="#4F4F4F" stroke-opacity="0.5"/><line x1="-475.018" y1="1138.59" x2="1155.25" y2="-491.674" stroke="#4F4F4F" stroke-opacity="0.5"/><line x1="-427.501" y1="1101.96" x2="1202.76" y2="-528.303" stroke="#4F4F4F" stroke-opacity="0.5"/><line x1="-418.534" y1="1101.96" x2="1211.73" y2="-528.303" stroke="#4F4F4F" stroke-opacity="0.5"/><line x1="-407.329" y1="1101.96" x2="1222.93" y2="-528.303" stroke="#4F4F4F" stroke-opacity="0.5"/><line x1="-398.362" y1="1101.96" x2="1231.9" y2="-528.303" stroke="#4F4F4F" stroke-opacity="0.5"/><line x1="-407.329" y1="1120.28" x2="1222.93" y2="-509.988" stroke="#4F4F4F" stroke-opacity="0.5"/><line x1="-398.362" y1="1120.28" x2="1231.9" y2="-509.988" stroke="#4F4F4F" stroke-opacity="0.5"/><line x1="-407.329" y1="1138.59" x2="1222.93" y2="-491.674" stroke="#4F4F4F" stroke-opacity="0.5"/><line x1="-398.362" y1="1138.59" x2="1231.9" y2="-491.674" stroke="#4F4F4F" stroke-opacity="0.5"/><line x1="-351.048" y1="1101.96" x2="1279.22" y2="-528.303" stroke="#4F4F4F" stroke-opacity="0.5"/><line x1="-342.082" y1="1101.96" x2="1288.18" y2="-528.303" stroke="#4F4F4F" stroke-opacity="0.5"/><line x1="-330.877" y1="1101.96" x2="1299.39" y2="-528.303" stroke="#4F4F4F" stroke-opacity="0.5"/><line x1="-321.91" y1="1101.96" x2="1308.35" y2="-528.303" stroke="#4F4F4F" stroke-opacity="0.5"/><line x1="-330.877" y1="1120.28" x2="1299.39" y2="-509.988" stroke="#4F4F4F" stroke-opacity="0.5"/><line x1="-321.91" y1="1120.28" x2="1308.35" y2="-509.988" stroke="#4F4F4F" stroke-opacity="0.5"/><line x1="-330.877" y1="1138.59" x2="1299.39" y2="-491.674" stroke="#4F4F4F" stroke-opacity="0.5"/><line x1="-321.91" y1="1138.59" x2="1308.35" y2="-491.674" stroke="#4F4F4F" stroke-opacity="0.5"/><line x1="-275.03" y1="1101.96" x2="1355.23" y2="-528.303" stroke="#4F4F4F" stroke-opacity="0.5"/><line x1="-266.064" y1="1101.96" x2="1364.2" y2="-528.303" stroke="#4F4F4F" stroke-opacity="0.5"/><line x1="-254.858" y1="1101.96" x2="1375.41" y2="-528.303" stroke="#4F4F4F" stroke-opacity="0.5"/><line x1="-245.892" y1="1101.96" x2="1384.37" y2="-528.303" stroke="#4F4F4F" stroke-opacity="0.5"/><line x1="-254.858" y1="1120.28" x2="1375.41" y2="-509.988" stroke="#4F4F4F" stroke-opacity="0.5"/><line x1="-245.892" y1="1120.28" x2="1384.37" y2="-509.988" stroke="#4F4F4F" stroke-opacity="0.5"/><line x1="-254.858" y1="1138.59" x2="1375.41" y2="-491.674" stroke="#4F4F4F" stroke-opacity="0.5"/><line x1="-245.892" y1="1138.59" x2="1384.37" y2="-491.674" stroke="#4F4F4F" stroke-opacity="0.5"/><line x1="-197.909" y1="1101.96" x2="1432.35" y2="-528.303" stroke="#4F4F4F" stroke-opacity="0.5"/><line x1="-188.942" y1="1101.96" x2="1441.32" y2="-528.303" stroke="#4F4F4F" stroke-opacity="0.5"/><line x1="-177.737" y1="1101.96" x2="1452.53" y2="-528.303" stroke="#4F4F4F" stroke-opacity="0.5"/><line x1="-168.771" y1="1101.96" x2="1461.49" y2="-528.303" stroke="#4F4F4F" stroke-opacity="0.5"/><line x1="-177.737" y1="1120.28" x2="1452.53" y2="-509.988" stroke="#4F4F4F" stroke-opacity="0.5"/><line x1="-168.771" y1="1120.28" x2="1461.49" y2="-509.988" stroke="#4F4F4F" stroke-opacity="0.5"/><line x1="-177.737" y1="1138.59" x2="1452.53" y2="-491.674" stroke="#4F4F4F" stroke-opacity="0.5"/><line x1="-168.771" y1="1138.59" x2="1461.49" y2="-491.674" stroke="#4F4F4F" stroke-opacity="0.5"/></g></svg>